<?xml version="1.0" encoding="UTF-8"?>
<svg id="Laag_1" data-name="Laag 1" xmlns="http://www.w3.org/2000/svg" viewBox="0 0 214.81 36.36">
  <defs>
    <style>
      .cls-1 {
        fill: #6ba244;
      }
    </style>
  </defs>
  <path class="cls-1" d="M204.03,31.03c-6.88,0-11.5-5.16-11.5-12.85s4.46-12.85,11.09-12.85,11.18,5.16,11.18,12.85-4.33,12.85-10.78,12.85ZM197.21,18.66c.11,6.45,2.56,9.71,7.31,9.71s7.5-3.71,7.58-9.71h-14.88ZM197.28,15.91h12.38c-.36-5.53-2.23-8-6.03-8s-5.93,2.47-6.35,8Z"/>
  <path class="cls-1" d="M27.95,30.81H0v-2.3h4.59V8.31H0v-2.3h8.73v4.54c1.24-3.23,3.71-4.99,7.08-4.99,4.93,0,7.76,3.12,7.76,8.57v14.38h4.36v2.3ZM9.18,28.51h9.8v-14.19c0-4.27-1.28-6.09-4.29-6.09-3.4,0-5.51,3.04-5.51,7.94v12.35Z"/>
  <path class="cls-1" d="M41.15,31.03c-6.72,0-11.23-5.16-11.23-12.85s4.51-12.85,11.23-12.85,11.23,5.16,11.23,12.85-4.51,12.85-11.23,12.85ZM41.15,7.9c-4.43,0-6.41,3.17-6.41,10.28s1.98,10.28,6.41,10.28,6.41-3.17,6.41-10.28-1.98-10.28-6.41-10.28Z"/>
  <path class="cls-1" d="M68.01,25.7c-6.72,0-11.23-5.16-11.23-12.85S61.29,0,68.01,0s11.23,5.16,11.23,12.85-4.51,12.85-11.23,12.85ZM68.01,2.57c-4.43,0-6.41,3.17-6.41,10.28s1.98,10.28,6.41,10.28,6.41-3.17,6.41-10.28-1.98-10.28-6.41-10.28Z"/>
  <path class="cls-1" d="M96.97,31.03c-3.87,0-6.85-1.62-8.34-4.49v4.04h-2.52V12.96c-.02-2.21.66-4.08,1.97-5.41,1.44-1.45,3.58-2.22,6.2-2.22,3.82,0,6.6,1.35,8.12,3.92v-3.47h2.52v13.58c.75,1.02,1.12,2.38,1.12,4.04,0,4.78-3.39,7.63-9.07,7.63ZM88.63,18.23v2.2c0,5.25,2.73,8.03,7.89,8.03,4.01,0,6.05-1.42,6.05-4.21,0-3.09-3.17-3.52-6.85-4.02-2.56-.34-5.2-.7-7.1-2.01ZM95.17,7.9c-3.72,0-5.6,1.38-5.6,4.12,0,2.98,3.14,3.41,6.77,3.9,2.11.29,4.28.58,6.05,1.41v-1.4c0-5.25-2.5-8.03-7.22-8.03Z"/>
  <path class="cls-1" d="M122.76,31.03c-6.8,0-11.36-5.16-11.36-12.85s4.51-12.85,11.23-12.85,11.23,5.16,11.23,12.85-4.46,12.85-11.09,12.85ZM122.53,7.9c-4.37,0-6.32,3.17-6.32,10.28s2.02,10.28,6.54,10.28c5.08,0,8.26-3.83,8.34-10.03h-3.28v-.25c0-7.49-1.43-10.28-5.28-10.28Z"/>
  <path class="cls-1" d="M148.92,36.36c-6.72,0-11.23-5.16-11.23-12.85s4.51-12.85,11.23-12.85,11.23,5.16,11.23,12.85-4.51,12.85-11.23,12.85ZM148.92,13.23c-4.43,0-6.41,3.17-6.41,10.28s1.98,10.28,6.41,10.28,6.41-3.17,6.41-10.28-1.98-10.28-6.41-10.28Z"/>
  <path class="cls-1" d="M179.44,35.98h-16.79v-2.3h4.59V8.08h-4.59v-2.3h8.73v4.31c1.46-3.12,4.01-4.76,7.44-4.76,6.1,0,10.19,4.8,10.19,11.95s-4.1,11.95-10.19,11.95c-3.08,0-5.48-1.35-6.99-3.91v8.36h7.6v2.3ZM178.02,8.04c-4.22,0-6.18,2.94-6.18,9.24s1.96,9.25,6.18,9.25,6.14-2.85,6.14-9.25-1.89-9.24-6.14-9.24Z"/>
</svg>